<?xml version="1.0" encoding="UTF-8"?>
<svg xmlns="http://www.w3.org/2000/svg" xmlns:xlink="http://www.w3.org/1999/xlink" width="448pt" height="512pt" viewBox="0 0 448 512" version="1.1">
<g id="surface41">
<path style=" stroke:none;fill-rule:nonzero;fill:rgb(30.588236%,93.333334%,58.039218%);fill-opacity:1;" d="M 448 73.144531 L 448 118.855469 C 448 159.144531 347.667969 192 224 192 C 100.332031 192 0 159.144531 0 118.855469 L 0 73.144531 C 0 32.855469 100.332031 0 224 0 C 347.667969 0 448 32.855469 448 73.144531 Z M 448 176 L 448 278.855469 C 448 319.144531 347.667969 352 224 352 C 100.332031 352 0 319.144531 0 278.855469 L 0 176 C 48.125 209.144531 136.207031 224.570312 224 224.570312 C 311.792969 224.570312 399.875 209.144531 448 176 Z M 448 336 L 448 438.855469 C 448 479.144531 347.667969 512 224 512 C 100.332031 512 0 479.144531 0 438.855469 L 0 336 C 48.125 369.144531 136.207031 384.570312 224 384.570312 C 311.792969 384.570312 399.875 369.144531 448 336 Z M 448 336 "/>
</g>
</svg>
